Coordinates
version=1
nRows=7
nColumns=40
inDegrees=yes

Units are S.I. units (second, meters, Newtons, ...)
Angles are in degrees.

endheader
time	pelvis_tilt	pelvis_list	pelvis_rotation	pelvis_tx	pelvis_ty	pelvis_tz	hip_flexion_r	hip_adduction_r	hip_rotation_r	knee_angle_r	knee_angle_r_beta	ankle_angle_r	subtalar_angle_r	mtp_angle_r	hip_flexion_l	hip_adduction_l	hip_rotation_l	knee_angle_l	knee_angle_l_beta	ankle_angle_l	subtalar_angle_l	mtp_angle_l	lumbar_extension	lumbar_bending	lumbar_rotation	arm_flex_r	arm_add_r	arm_rot_r	elbow_flex_r	pro_sup_r	wrist_flex_r	wrist_dev_r	arm_flex_l	arm_add_l	arm_rot_l	elbow_flex_l	pro_sup_l	wrist_flex_l	wrist_dev_l
     17.62000000	     -6.62011405	     -4.63490793	     -0.59658293	      0.81663941	      0.92617883	      0.51245444	     17.77842114	      3.96556840	    -12.38412867	     18.61807124	     18.61807124	      9.14859332	     -1.80316756	     -1.89388135	     31.40885368	    -11.55391700	      3.53771036	     59.40646381	     59.40646381	      9.88587506	    -18.53184919	     14.17457812	    -10.47456233	      5.88863608	      1.40862221	     19.89660503	    -15.71812343	      2.99907711	     62.04147672	     43.98776902	      0.00000000	      0.00000000	      6.17114674	     -6.80267074	     -5.38281994	     28.55768172	     44.16977724	      0.00000000	      0.00000000
     17.63314286	     -6.64943995	     -4.62081475	     -0.22263381	      0.81547682	      0.92634985	      0.51323757	     17.28760645	      4.01453726	    -12.43496136	     18.41464898	     18.41464898	      9.49261844	     -2.08410271	     -1.96152275	     32.45209036	    -11.59696471	      3.28733396	     56.98734705	     56.98734705	     10.28512106	    -18.80138765	     14.09729876	    -10.51419928	      5.82890549	      1.41040245	     21.57087788	    -16.01179437	      2.90110971	     65.20429564	     43.97429170	      0.00000000	      0.00000000	      5.26190404	     -6.80299087	     -4.64792909	     27.80524449	     44.16719145	      0.00000000	      0.00000000
     17.64628571	     -6.65888158	     -4.57389487	      0.16869904	      0.81437408	      0.92659907	      0.51391708	     16.73463966	      4.02772915	    -12.51010135	     18.13306204	     18.13306204	      9.81241268	     -2.29194363	     -1.98428612	     33.25743378	    -11.51049385	      3.03627805	     54.24209695	     54.24209695	     10.68587577	    -18.93874379	     14.39994829	    -10.54714752	      5.72764958	      1.18499412	     23.76205930	    -15.86274065	      2.57170967	     67.02086510	     43.95171927	      0.00000000	      0.00000000	      4.23122127	     -6.79846062	     -4.45084859	     27.13789435	     44.14756303	      0.00000000	      0.00000000
     17.65942857	     -6.73361659	     -4.53401604	      0.53188282	      0.81325196	      0.92665239	      0.51446589	     16.29198764	      4.03279325	    -12.61424379	     17.91281973	     17.91281973	     10.11301066	     -2.48083617	     -2.03016393	     33.96331184	    -11.32819621	      2.82198073	     51.30784903	     51.30784903	     11.05370999	    -18.97739999	     14.72018003	    -10.48521672	      5.66380512	      1.19538358	     25.88075938	    -15.99244430	      2.24837840	     68.66529846	     43.92897603	      0.00000000	      0.00000000	      3.32305998	     -6.71676302	     -4.30287456	     26.62800704	     44.12778253	      0.00000000	      0.00000000
     17.67257143	     -6.71972080	     -4.47180004	      0.93420584	      0.81219132	      0.92685816	      0.51485529	     15.72226495	      4.00618198	    -12.73534882	     17.63439645	     17.63439645	     10.43303835	     -2.62805863	     -2.08365837	     34.38634445	    -10.97672486	      2.74310642	     48.16028608	     48.16028608	     11.28331163	    -18.94513041	     15.06192904	    -10.57046444	      5.58873328	      0.95553415	     27.86580688	    -15.83261004	      1.98390498	     70.84559207	     43.88982825	      0.00000000	      0.00000000	      2.34443910	     -6.74218239	     -4.09220536	     26.03232807	     44.10245831	      0.00000000	      0.00000000
     17.68571429	     -6.76220934	     -4.43601016	      1.33136084	      0.81113174	      0.92690021	      0.51505366	     15.23920011	      3.98019836	    -12.93686379	     17.39651206	     17.39651206	     10.72736460	     -2.67614158	     -2.17720844	     34.76200058	    -10.52606169	      2.82812362	     44.95468306	     44.95468306	     11.41023803	    -18.78507136	     15.22856951	    -10.58895304	      5.56709029	      0.91008734	     29.67615247	    -15.88867291	      1.65430577	     72.93874049	     43.85691669	      0.00000000	      0.00000000	      1.47335573	     -6.70103035	     -3.85013150	     25.58348343	     44.07289156	      0.00000000	      0.00000000
     17.69885714	     -6.81701560	     -4.38698096	      1.72203783	      0.81011383	      0.92692295	      0.51502648	     14.76204904	      3.91915914	    -13.19203221	     17.14786986	     17.14786986	     11.01649990	     -2.62476647	     -2.29527844	     35.03777454	     -9.96669477	      3.04692744	     41.73333976	     41.73333976	     11.38646307	    -18.50094348	     15.10826676	    -10.56323570	      5.54541230	      0.96628640	     31.36567238	    -16.01724916	      1.23568237	     74.91471641	     43.83254215	      0.00000000	      0.00000000	      0.65867890	     -6.65102868	     -3.57912167	     25.28936111	     44.03849856	      0.00000000	      0.00000000
